Coordinates
version=1
nRows=11
nColumns=40
inDegrees=yes

Units are S.I. units (second, meters, Newtons, ...)
If the header above contains a line with 'inDegrees', this indicates whether rotational values are in degrees (yes) or radians (no).

endheader
time	pelvis_tilt	pelvis_list	pelvis_rotation	pelvis_tx	pelvis_ty	pelvis_tz	hip_flexion_r	hip_adduction_r	hip_rotation_r	knee_angle_r	knee_angle_r_beta	ankle_angle_r	subtalar_angle_r	mtp_angle_r	hip_flexion_l	hip_adduction_l	hip_rotation_l	knee_angle_l	knee_angle_l_beta	ankle_angle_l	subtalar_angle_l	mtp_angle_l	lumbar_extension	lumbar_bending	lumbar_rotation	arm_flex_r	arm_add_r	arm_rot_r	elbow_flex_r	pro_sup_r	wrist_flex_r	wrist_dev_r	arm_flex_l	arm_add_l	arm_rot_l	elbow_flex_l	pro_sup_l	wrist_flex_l	wrist_dev_l
      9.90000000	     19.14601923	     -0.15115457	   -175.09519529	      0.35514682	      0.84327722	     -0.60326311	     44.56146250	    -15.11382864	    -11.12247747	     26.05970677	      0.45482769	      2.13334339	      0.00000000	      0.00000000	     43.65126667	    -10.09616260	     -8.73423133	     20.58441663	      0.35926584	     -2.96419736	      0.00000000	      0.00000000	    -25.47034519	     -5.26899411	      2.70841742	     34.47310918	    -15.35618162	     82.23470190	     10.82612011	     79.84773173	      0.00000000	      0.00000000	     34.53775073	     -9.05173315	     44.09118402	     13.70962690	     51.72545702	      0.00000000	      0.00000000
      9.90500000	     19.40049265	     -0.20421017	   -175.18578173	      0.35615936	      0.84247224	     -0.60349486	     45.02047611	    -15.10011332	    -10.88238367	     26.18036056	      0.45693349	      2.09626491	      0.00000000	      0.00000000	     44.04774529	    -10.12302660	     -8.83873965	     20.73812275	      0.36194852	     -2.98468003	      0.00000000	      0.00000000	    -25.46764504	     -5.38798621	      2.79178510	     34.61913099	    -15.29243688	     81.74833289	     10.67172825	     80.14228481	      0.00000000	      0.00000000	     34.76903401	     -8.98397442	     44.04786854	     13.66005884	     51.37133757	      0.00000000	      0.00000000
      9.91000000	     19.78366619	      0.59556011	   -174.58882841	      0.35760063	      0.84155551	     -0.60269550	     45.17793648	    -14.89048155	    -11.85943084	     25.93843318	      0.45271106	      1.68776253	      0.00000000	      0.00000000	     44.88419935	    -10.20342437	     -7.18401570	     20.66614909	      0.36069235	     -3.40185030	      0.00000000	      0.00000000	    -25.29642344	     -4.35006269	      2.73630516	     34.22730642	    -16.09698555	     78.08822764	     12.02427039	     76.78876932	      0.00000000	      0.00000000	     34.98609413	     -8.29490898	     42.61743085	     13.22506052	     50.15725777	      0.00000000	      0.00000000
      9.91500000	     19.58806136	     -0.27116345	   -175.20340840	      0.35781860	      0.84157432	     -0.60384813	     45.43796196	    -15.18245086	    -10.87141464	     26.31472721	      0.45927863	      1.97869681	      0.00000000	      0.00000000	     44.40074682	    -10.09265530	     -8.89300278	     20.80639842	      0.36314016	     -3.08816366	      0.00000000	      0.00000000	    -25.83551507	     -5.50375660	      2.73865908	     35.15964683	    -15.40403214	     82.24882762	     10.89476060	     79.90707149	      0.00000000	      0.00000000	     35.18650943	     -8.95329233	     43.73225945	     13.71011806	     50.76208029	      0.00000000	      0.00000000
      9.92000000	     19.81026807	     -0.23979304	   -175.24196798	      0.35878084	      0.84085954	     -0.60408105	     45.78664855	    -15.14147595	    -10.83076416	     26.36874041	      0.46022134	      1.91858019	      0.00000000	      0.00000000	     44.76528259	    -10.14851191	     -8.88241017	     20.90173000	      0.36480401	     -3.13867033	      0.00000000	      0.00000000	    -25.86408227	     -5.52276943	      2.80003298	     35.34604814	    -15.42718697	     81.90559537	     10.92225837	     80.30794705	      0.00000000	      0.00000000	     35.42057545	     -8.97973433	     44.05106559	     13.71056104	     50.79762873	      0.00000000	      0.00000000
      9.92500000	     19.92403585	     -0.20251626	   -175.27137849	      0.35961159	      0.84030890	     -0.60422649	     46.02271493	    -15.13200591	    -10.88983340	     26.49584199	      0.46243968	      2.02694187	      0.00000000	      0.00000000	     45.04952283	    -10.22620075	     -8.93450176	     21.10896588	      0.36842096	     -2.99231664	      0.00000000	      0.00000000	    -26.00778777	     -5.51181972	      2.84245355	     35.44544070	    -15.17832253	     81.31076077	     10.47879793	     79.32079776	      0.00000000	      0.00000000	     35.68984374	     -8.62654893	     43.00811372	     13.35073240	     50.15193879	      0.00000000	      0.00000000
      9.93000000	     20.22385691	      0.08601125	   -175.09904130	      0.36079806	      0.83957484	     -0.60400463	     46.31589167	    -15.03557522	    -11.18602747	     26.38288950	      0.46046829	      1.68626805	      0.00000000	      0.00000000	     45.55504924	    -10.25957768	     -8.33806868	     21.04748943	      0.36734799	     -3.29377622	      0.00000000	      0.00000000	    -25.96083253	     -5.15690329	      2.78978481	     35.55406796	    -15.58686237	     80.39367817	     11.16964340	     78.36687329	      0.00000000	      0.00000000	     35.77564228	     -8.57338757	     42.46792194	     13.52446885	     49.85655602	      0.00000000	      0.00000000
      9.93500000	     20.38870465	     -0.13383538	   -175.26787066	      0.36170453	      0.83895477	     -0.60442678	     46.69691436	    -15.09365393	    -10.78441313	     26.51447537	      0.46276489	      1.79199989	      0.00000000	      0.00000000	     45.76486188	    -10.23306313	     -8.72789688	     21.17027526	      0.36949101	     -3.25936886	      0.00000000	      0.00000000	    -26.06750470	     -5.50091021	      2.84731266	     36.08560105	    -15.48303348	     82.37819736	     10.94492705	     80.13084875	      0.00000000	      0.00000000	     36.13129063	     -8.92255789	     44.19549566	     13.66416812	     51.07328600	      0.00000000	      0.00000000
      9.94000000	     20.48903775	     -0.05495477	   -175.12994810	      0.36262781	      0.83849473	     -0.60429716	     46.87010633	    -15.17610528	    -11.06036157	     26.58346859	      0.46396905	      1.72836718	      0.00000000	      0.00000000	     46.01153638	    -10.17785665	     -8.51282695	     21.21089269	      0.37019991	     -3.23486314	      0.00000000	      0.00000000	    -26.25085329	     -5.37717342	      2.75242078	     36.24839647	    -15.34271118	     81.90802335	     10.67287675	     79.80718824	      0.00000000	      0.00000000	     36.45580452	     -8.68366948	     43.89165860	     13.28911340	     50.84461264	      0.00000000	      0.00000000
      9.94500000	     20.76223989	      0.23748745	   -174.99710180	      0.36371895	      0.83776239	     -0.60415301	     47.16026883	    -15.06253573	    -11.34239328	     26.56171773	      0.46358943	      1.54282046	      0.00000000	      0.00000000	     46.47405839	    -10.25360225	     -8.00030418	     21.16693057	      0.36943263	     -3.47260161	      0.00000000	      0.00000000	    -26.21608166	     -5.02868872	      2.74044097	     36.33929656	    -15.65779974	     80.74978778	     11.23491668	     78.65821950	      0.00000000	      0.00000000	     36.55298113	     -8.58206993	     43.15492196	     13.48069220	     50.42863372	      0.00000000	      0.00000000
      9.95000000	     20.93190482	      0.09936001	   -175.07281347	      0.36465171	      0.83725304	     -0.60437108	     47.45983040	    -15.10866053	    -11.08150430	     26.54522202	      0.46330152	      1.46399353	      0.00000000	      0.00000000	     46.69864289	    -10.21390994	     -8.23617747	     21.22956676	      0.37052584	     -3.50394184	      0.00000000	      0.00000000	    -26.33015903	     -5.23045916	      2.71907017	     36.57057396	    -15.44480667	     81.09305953	     10.86439512	     78.67702150	      0.00000000	      0.00000000	     36.94915460	     -8.34619302	     42.94751717	     12.97007389	     50.18373869	      0.00000000	      0.00000000
